<svg xmlns="http://www.w3.org/2000/svg" width="450" height="60" viewBox="0 0 450 60"><g opacity=".5"><g fill="#231F20"><path d="M91.802 18.01c-1.722 0-3.124 1.414-3.124 3.158V33.51c0 4.063 6.247 4.064 6.247 0V21.17c.002-1.745-1.397-3.16-3.123-3.16zm-37.678 0C52.4 18.01 51 19.423 51 21.167V33.51c0 4.064 6.25 4.063 6.25 0V21.17c0-1.745-1.4-3.16-3.126-3.16zM59.128 18.104v22.548c0 1.342 1.09 2.43 2.436 2.43h2.783v6.87c0 4.063 6.248 4.057 6.248 0v-6.87h4.86v6.87c0 4.063 6.25 4.063 6.25 0v-6.87h2.783c1.344 0 2.433-1.088 2.433-2.43V18.104H59.13zM79.55 6.42l2.57-3.712c.347-.507-.375-1.005-.723-.492L78.73 6.07c-3.657-1.433-7.878-1.434-11.534 0L64.53 2.216c-.356-.508-1.074-.016-.723.492l2.567 3.713c-4.082 1.89-6.945 5.484-7.31 9.677H86.86c-.363-4.195-3.227-7.787-7.31-9.676zM67.1 12.268c-1.983 0-1.983-3.064 0-3.064 1.985 0 1.985 3.064 0 3.064zm11.918 0c-1.98 0-1.98-3.064 0-3.064 1.987 0 1.987 3.064 0 3.064z"/></g><path fill="#231F20" d="M12.988 14.058c2.672 0 5.163.96 7.736 1.545 1.967.446 3.626.048 5.535-.58 2.59-.844 5.136-1.502 7.877-1.016 3.072.542 5.484 2.398 7.422 4.77-3.336 2.835-5.744 6.24-5.362 10.813.32 3.89 2.87 8.292 6.8 9.446-.997 3.217-2.686 6.3-4.72 8.98-1.543 2.04-3.688 4.262-6.404 4.447-2.992.197-5.69-1.752-8.665-1.91-3.11-.18-5.662 2.01-8.7 2.01-2.586 0-4.716-1.844-6.272-3.712-2.517-3.02-4.42-6.715-5.69-10.42C.37 32.058.07 23.968 4.407 18.392c2.277-2.89 5.136-4.334 8.582-4.334M31.482 2.5c.85 2.714-.77 6.238-2.436 8.332-2.006 2.516-4.283 3.574-7.43 3.84.042-2.975.818-5.544 2.322-7.716C25.47 4.792 27.98 3.304 31.482 2.5"/><g fill="#231F20"><path d="M161.896 21.663c0-3.51-5.785-2.54-8.025-2.54l-1.262 5.838c2.752 0 9.288 1.034 9.288-3.297zM173.88 21.663c0-3.51-5.78-2.54-8.024-2.54l-1.264 5.838c2.755 0 9.287 1.036 9.287-3.297zM160.29 30.447c0-3.513-5.78-2.542-8.025-2.542L151 33.745c2.76 0 9.29 1.035 9.29-3.298zM172.272 30.447c0-3.513-5.78-2.542-8.023-2.542l-1.266 5.84c2.757 0 9.288 1.035 9.288-3.298zM184.81 26.884c0-3.513-5.776-2.543-8.02-2.543l-1.266 5.842c2.753.002 9.286 1.035 9.286-3.298zM183.085 36.03c0-3.51-5.784-2.537-8.027-2.537l-1.264 5.84c2.744 0 9.29 1.036 9.29-3.302zM170.55 39.597c0-3.52-5.775-2.548-8.022-2.548l-1.265 5.84c2.757.003 9.287 1.037 9.287-3.293z"/></g><g fill="#231F20"><path d="M206.544 18.123c0 3.487-5.67 3.225-5.28-.292.364-3.27 5.28-3.032 5.28.293zM201.002 33.273c0-2.418.2-4.9.862-7.234.236-.834.792-2.988 1.97-2.988 1.235 0 1.82 2.098 2.078 2.987.68 2.33.878 4.815.878 7.233 0 2.42-.197 4.904-.878 7.237-.26.89-.844 2.99-2.077 2.99-1.18 0-1.734-2.156-1.97-2.99-.662-2.336-.863-4.818-.863-7.237z"/></g><path fill="#231F20" d="M123.77 32.883c-2.142-.252-3.737-1.12-5.21-2.098l-.69.345-3.19 11.007c4.088 2.695 9.272 3.287 13.694.886l3.235-11.173c-.914-.46-1.073-.105-2.03.256-1.84.69-3.85 1.008-5.81.777-2.143-.25 3.918.463 0 0zm-6.923-3.28c-2.39-1.634-4.855-2.52-7.79-2.228-1.685.168-3.46.66-4.887 1.6L101 39.923c.71.377.797.246 1.545-.046 1.052-.406 2.16-.676 3.282-.787 2.674-.272 4.966.447 7.208 1.854l.628-.323 3.184-11.016zm-5.223-3.37c2.058.142 3.61.965 5.09 1.893l.632-.322 3.182-11.02c-2.392-1.64-4.853-2.522-7.79-2.23-1.686.167-3.458.66-4.888 1.598l-3.173 10.95c.302.16.53.4.85.253.498-.23 1.013-.425 1.536-.588 1.47-.455 3.023-.638 4.56-.533 2.057.14-2.858-.194 0 0zm22.975-7.55c-4 2.18-8.634 1.763-12.36-.717l-.692.346-3.186 11.006c4.093 2.7 9.264 3.284 13.693.884l3.233-11.172-.69-.346zM280.54 30.458c0-.257-.012-2.52-1.37-3.876-2.278-2.28-6.71-1.688-9.378-.494.13.598.672 1.914 2.17 2.17 1.434.252 3.312-.45 4.497.674.46.44.567 1.19.54 1.912-1.655-.48-3.41-.668-5.115-.332-1.324.262-2.176 1.076-2.92 2.142-.073-2.407-.05-4.82-.054-7.228 0-1.095.146-2.272-.454-3.247-.566-.922-2.063-1.788-3.188-1.67.023 1.212 0 4.986 0 6.51-.93-1.11-1.94-1.963-4.138-2.018-2.562-.056-4.506 1.898-5.375 4.138-.258-1.112-.914-2.378-1.5-2.815-1.39-1.053-3.38-1.37-5.084-1.195-.415.042-4.187.462-4.164 1.013.07 1.384 1.707 2.145 2.874 2.132.983-.012 3.057-.297 3.77.58.608.753.674 1.993.674 1.993-2.6-.826-5.618-.808-7.702 1.16.105-1.137-.646-3.822-1.14-4.52-2.027-2.898-6.586-3.413-8.785-.44l-.023-6.512c-2.688 0-3.643 2.172-3.62 2.946.022.698-.052 13.85-.052 14.708.67.024 2.74.31 3.645-1.656 2.53 3.18 7.62 2.133 9.327-1.37.182 1.498 1.45 3.23 4.21 3.308 2.768.076 3.62-1.19 4.086-1.656.208 1.19 1.263 1.345 3.593 1.45 0-.624.022-2.276-.025-3.466.36 1.164 2.22 3.7 5.53 3.644 2.22-.034 3.28-1.162 3.928-1.86.283.492.98 1.682 3.638 1.604.03-.725.055-1.19.03-1.89.462.828 1.805 2.274 4.364 2.2.727-.023 2.92-.493 3.645-1.655.178.592.504.93 1.056 1.162.676.286 2.535.183 2.535.183l-.025-7.73zm-42.817 4.91c-2.91-.117-3.933-3.763-2.41-5.93 2.03-2.89 5.708-.606 5.663 2.413-.024 1.866-1.288 3.595-3.253 3.517zm11.938.544c-1.244.07-2.663-.787-2.042-2.238.688-1.61 3.49-1.29 4.73-.605.025.85-.028 2.687-2.687 2.842-1.754.102 2.66-.155 0 0zm12.558-.545c-3.064 0-3.96-3.86-2.39-6.004 1.8-2.453 5.463-.71 5.518 2.08.037 2.01-1.135 3.924-3.128 3.924zm12.147.545c-1.25.07-2.66-.786-2.04-2.238.685-1.61 3.49-1.29 4.73-.605.024.85-.028 2.687-2.69 2.842-1.755.102 2.662-.155 0 0z"/><g fill="#231F20"><path d="M291.003 27.054h2.036c.994 2.457 2.295 4.955 2.895 7.54.628-2.665 2.274-5.23 3.456-7.69h.246c1.214 2.476 2.84 5.016 3.535 7.69.58-2.586 1.897-5.087 2.896-7.54h1.903l-4.61 10.92h-.268c-.6-1.262-1.198-2.526-1.803-3.79-.65-1.367-1.435-2.742-1.793-4.213-.72 2.782-2.41 5.42-3.672 8.003h-.265l-4.557-10.92zM315.66 36.426c1.665 0 2.793-.642 3.51-1.423l1.16 1.087c-1.932 2.1-5.538 2.444-8 1.03-2.418-1.394-3.283-4.442-2.23-6.91 1.08-2.544 3.985-3.858 6.728-3.23 2.87.654 4.245 3.345 4.14 6.013h-9.437c.244 2.04 1.694 3.433 4.13 3.433zm3.43-4.802c-.38-4.374-6.905-4.198-7.526 0h7.526zM338.246 28.975c0-3.634 2.143-6.97 5.693-8.32 3.41-1.3 7.558-.648 10.21 1.832 2.757 2.572 3.46 6.773 2.004 10.144-1.436 3.32-4.9 5.32-8.587 5.32-5.14 0-9.32-3.634-9.32-8.975zm17.515 0c0-4.43-3.554-8.02-8.194-8.02-4.64 0-8.197 3.59-8.197 8.02 0 4.432 3.556 8.02 8.196 8.02s8.195-3.59 8.195-8.02zM358.034 34.446l.94-.442c.744 1.353 1.87 2.432 3.446 2.825 1.76.44 3.98.21 5.227-1.194 1.01-1.134 1.076-2.943.256-4.196-.828-1.268-2.37-1.902-3.73-2.504-2.705-1.2-6.01-2.947-4.684-6.405.64-1.675 2.447-2.53 4.224-2.53 1.98 0 3.617.927 4.66 2.528l-.86.54c-1.034-1.6-2.738-2.422-4.702-2.062-1.744.32-2.664 1.732-2.47 3.39.34 2.893 4.71 3.515 6.806 4.913 2.805 1.877 3.412 6.145.106 7.922-3.25 1.748-7.618.384-9.22-2.786zM326.008 35.444l.058 2.297h-1.848V20.214h1.848v9.04c2.026-3.583 7.403-2.937 9.07.597 1.65 3.49-.585 8.1-4.836 8.1-1.987 0-3.537-1.032-4.292-2.506zm7.75-3.068c0-2.156-1.51-3.95-3.84-3.95-2.322 0-3.93 1.76-3.93 3.95 0 2.194 1.59 4 3.93 4 2.347 0 3.84-1.84 3.84-4z"/></g></g><g fill="#FFF"><path d="M91.802 17.01c-1.722 0-3.124 1.414-3.124 3.158V32.51c0 4.063 6.247 4.064 6.247 0V20.17c.002-1.745-1.397-3.16-3.123-3.16zm-37.678 0C52.4 17.01 51 18.423 51 20.167V32.51c0 4.064 6.25 4.063 6.25 0V20.17c0-1.745-1.4-3.16-3.126-3.16zM59.128 17.104v22.548c0 1.342 1.09 2.43 2.436 2.43h2.783v6.87c0 4.063 6.248 4.057 6.248 0v-6.87h4.86v6.87c0 4.063 6.25 4.063 6.25 0v-6.87h2.783c1.344 0 2.433-1.088 2.433-2.43V17.104H59.13zM79.55 5.42l2.57-3.712c.347-.507-.375-1.005-.723-.492L78.73 5.07c-3.657-1.433-7.878-1.434-11.534 0L64.53 1.216c-.356-.508-1.074-.016-.723.492l2.567 3.713c-4.082 1.89-6.945 5.484-7.31 9.677H86.86c-.363-4.195-3.227-7.787-7.31-9.676zM67.1 11.268c-1.983 0-1.983-3.064 0-3.064 1.985 0 1.985 3.064 0 3.064zm11.918 0c-1.98 0-1.98-3.064 0-3.064 1.987 0 1.987 3.064 0 3.064z"/></g><path fill="#FFF" d="M12.988 13.058c2.672 0 5.163.96 7.736 1.545 1.967.446 3.626.048 5.535-.58 2.59-.844 5.136-1.502 7.877-1.016 3.072.542 5.484 2.398 7.422 4.77-3.336 2.835-5.744 6.24-5.362 10.813.32 3.89 2.87 8.292 6.8 9.446-.997 3.217-2.686 6.3-4.72 8.98-1.543 2.04-3.688 4.262-6.404 4.447-2.992.197-5.69-1.752-8.665-1.91-3.11-.18-5.662 2.01-8.7 2.01-2.586 0-4.716-1.844-6.272-3.712-2.517-3.02-4.42-6.715-5.69-10.42C.37 31.058.07 22.968 4.407 17.392c2.277-2.89 5.136-4.334 8.582-4.334M31.482 1.5c.85 2.714-.77 6.238-2.436 8.332-2.006 2.516-4.283 3.574-7.43 3.84.042-2.975.818-5.544 2.322-7.716C25.47 3.792 27.98 2.304 31.482 1.5"/><g fill="#FFF"><path d="M161.896 20.663c0-3.51-5.785-2.54-8.025-2.54l-1.262 5.838c2.752 0 9.288 1.035 9.288-3.297zM173.88 20.663c0-3.51-5.78-2.54-8.024-2.54l-1.264 5.838c2.755 0 9.287 1.036 9.287-3.297zM160.29 29.447c0-3.513-5.78-2.542-8.025-2.542L151 32.745c2.76 0 9.29 1.035 9.29-3.298zM172.272 29.447c0-3.513-5.78-2.542-8.023-2.542l-1.266 5.84c2.757 0 9.288 1.035 9.288-3.298zM184.81 25.884c0-3.513-5.776-2.543-8.02-2.543l-1.266 5.842c2.753.002 9.286 1.035 9.286-3.298zM183.085 35.03c0-3.51-5.784-2.537-8.027-2.537l-1.264 5.84c2.744 0 9.29 1.036 9.29-3.302zM170.55 38.597c0-3.52-5.775-2.548-8.022-2.548l-1.265 5.84c2.757.003 9.287 1.037 9.287-3.293z"/></g><g fill="#FFF"><path d="M206.544 17.123c0 3.487-5.67 3.225-5.28-.292.364-3.27 5.28-3.032 5.28.293zM201.002 32.273c0-2.418.2-4.9.862-7.234.236-.834.792-2.988 1.97-2.988 1.235 0 1.82 2.098 2.078 2.987.68 2.33.878 4.815.878 7.233 0 2.42-.197 4.904-.878 7.237-.26.89-.844 2.99-2.077 2.99-1.18 0-1.734-2.156-1.97-2.99-.662-2.336-.863-4.818-.863-7.237z"/></g><path fill="#FFF" d="M123.77 31.883c-2.142-.252-3.737-1.12-5.21-2.098l-.69.345-3.19 11.007c4.088 2.695 9.272 3.287 13.694.886l3.235-11.173c-.914-.46-1.073-.105-2.03.256-1.84.69-3.85 1.008-5.81.777-2.143-.25 3.918.463 0 0zm-6.923-3.28c-2.39-1.634-4.855-2.52-7.79-2.228-1.685.168-3.46.66-4.887 1.6L101 38.923c.71.377.797.246 1.545-.046 1.052-.406 2.16-.676 3.282-.787 2.674-.272 4.966.447 7.208 1.854l.628-.323 3.184-11.016zm-5.223-3.368c2.058.14 3.61.963 5.09 1.89l.632-.32 3.182-11.022c-2.392-1.638-4.853-2.52-7.79-2.23-1.686.168-3.458.66-4.888 1.6L104.677 26.1c.302.163.53.403.85.255.498-.23 1.013-.425 1.536-.588 1.47-.455 3.023-.638 4.56-.532 2.057.14-2.858-.195 0 0zm22.975-7.55c-4 2.177-8.634 1.76-12.36-.72l-.692.347-3.186 11.006c4.093 2.7 9.264 3.284 13.693.884l3.233-11.172-.69-.346zM280.54 29.458c0-.257-.012-2.52-1.37-3.876-2.278-2.28-6.71-1.688-9.378-.494.13.597.672 1.914 2.17 2.17 1.434.25 3.312-.452 4.497.673.46.442.567 1.192.54 1.913-1.655-.48-3.41-.668-5.115-.332-1.324.263-2.176 1.077-2.92 2.143-.073-2.407-.05-4.82-.054-7.228 0-1.095.146-2.272-.454-3.247-.566-.92-2.063-1.787-3.188-1.67.023 1.213 0 4.987 0 6.51-.93-1.11-1.94-1.962-4.138-2.017-2.562-.055-4.506 1.9-5.375 4.14-.258-1.113-.914-2.38-1.5-2.817-1.39-1.053-3.38-1.37-5.084-1.194-.415.04-4.187.462-4.164 1.012.07 1.384 1.707 2.145 2.874 2.132.983-.012 3.057-.297 3.77.58.608.753.674 1.993.674 1.993-2.6-.826-5.618-.808-7.702 1.16.105-1.137-.646-3.822-1.14-4.52-2.027-2.898-6.586-3.413-8.785-.44l-.023-6.512c-2.688 0-3.643 2.172-3.62 2.946.022.7-.052 13.852-.052 14.71.67.023 2.74.31 3.645-1.657 2.53 3.18 7.62 2.133 9.327-1.37.182 1.498 1.45 3.23 4.21 3.308 2.768.077 3.62-1.19 4.086-1.655.208 1.19 1.263 1.345 3.593 1.45 0-.624.022-2.276-.025-3.466.36 1.163 2.22 3.698 5.53 3.643 2.22-.034 3.28-1.162 3.928-1.86.283.492.98 1.682 3.638 1.604.03-.725.055-1.19.03-1.89.462.828 1.805 2.274 4.364 2.2.727-.023 2.92-.493 3.645-1.655.178.592.504.93 1.056 1.162.676.286 2.535.183 2.535.183l-.025-7.73zm-42.817 4.91c-2.91-.117-3.933-3.763-2.41-5.93 2.03-2.89 5.708-.606 5.663 2.413-.024 1.866-1.288 3.595-3.253 3.517zm11.938.544c-1.244.07-2.663-.787-2.042-2.238.688-1.61 3.49-1.29 4.73-.605.025.85-.028 2.687-2.687 2.842-1.754.102 2.66-.155 0 0zm12.558-.545c-3.064 0-3.96-3.86-2.39-6.004 1.8-2.453 5.463-.71 5.518 2.08.037 2.01-1.135 3.924-3.128 3.924zm12.147.545c-1.25.07-2.66-.786-2.04-2.238.685-1.61 3.49-1.29 4.73-.605.024.85-.028 2.687-2.69 2.842-1.755.102 2.662-.155 0 0z"/><g fill="#FFF"><path d="M291.003 26.054h2.036c.994 2.457 2.295 4.955 2.895 7.54.628-2.665 2.274-5.23 3.456-7.69h.246c1.214 2.476 2.84 5.016 3.535 7.69.58-2.586 1.897-5.087 2.896-7.54h1.903l-4.61 10.92h-.268c-.6-1.262-1.198-2.526-1.803-3.79-.65-1.367-1.435-2.742-1.793-4.213-.72 2.782-2.41 5.42-3.672 8.003h-.265l-4.557-10.92zM315.66 35.426c1.665 0 2.793-.642 3.51-1.423l1.16 1.087c-1.932 2.1-5.538 2.444-8 1.03-2.418-1.394-3.283-4.442-2.23-6.91 1.08-2.544 3.985-3.858 6.728-3.23 2.87.654 4.245 3.345 4.14 6.013h-9.437c.244 2.04 1.694 3.433 4.13 3.433zm3.43-4.802c-.38-4.374-6.905-4.198-7.526 0h7.526zM338.246 27.975c0-3.634 2.143-6.97 5.693-8.32 3.41-1.3 7.558-.648 10.21 1.832 2.757 2.572 3.46 6.773 2.004 10.144-1.436 3.32-4.9 5.32-8.587 5.32-5.14 0-9.32-3.634-9.32-8.975zm17.515 0c0-4.43-3.554-8.02-8.194-8.02-4.64 0-8.197 3.59-8.197 8.02 0 4.432 3.556 8.02 8.196 8.02s8.195-3.59 8.195-8.02zM358.034 33.446l.94-.442c.744 1.353 1.87 2.432 3.446 2.825 1.76.44 3.98.21 5.227-1.194 1.01-1.134 1.076-2.943.256-4.196-.828-1.268-2.37-1.902-3.73-2.504-2.705-1.2-6.01-2.947-4.684-6.405.64-1.675 2.447-2.53 4.224-2.53 1.98 0 3.617.927 4.66 2.528l-.86.54c-1.034-1.6-2.738-2.422-4.702-2.062-1.744.32-2.664 1.732-2.47 3.39.34 2.893 4.71 3.515 6.806 4.913 2.805 1.877 3.412 6.145.106 7.922-3.25 1.748-7.618.384-9.22-2.786zM326.008 34.444l.058 2.297h-1.848V19.214h1.848v9.04c2.026-3.582 7.403-2.937 9.07.597 1.65 3.49-.585 8.1-4.836 8.1-1.987 0-3.537-1.032-4.292-2.506zm7.75-3.068c0-2.156-1.51-3.95-3.84-3.95-2.322 0-3.93 1.76-3.93 3.95 0 2.194 1.59 4 3.93 4 2.347 0 3.84-1.84 3.84-4z"/></g></svg>